<svg width="44" height="44" viewBox="0 0 44 44" fill="none" xmlns="http://www.w3.org/2000/svg">
<path d="M38.2062 8.4516C37.2698 7.51477 36.1581 6.77161 34.9344 6.26458C33.7107 5.75755 32.3991 5.49658 31.0746 5.49658C29.75 5.49658 28.4384 5.75755 27.2147 6.26458C25.9911 6.77161 24.8793 7.51477 23.9429 8.4516L21.9996 10.3949L20.0562 8.4516C18.1648 6.56016 15.5995 5.49756 12.9246 5.49756C10.2497 5.49756 7.68434 6.56016 5.7929 8.4516C3.90146 10.343 2.83887 12.9084 2.83887 15.5833C2.83887 18.2582 3.90146 20.8235 5.7929 22.7149L21.9996 38.9216L38.2062 22.7149C39.1431 21.7785 39.8862 20.6668 40.3932 19.4431C40.9003 18.2194 41.1612 16.9078 41.1612 15.5833C41.1612 14.2587 40.9003 12.9471 40.3932 11.7234C39.8862 10.4998 39.1431 9.38798 38.2062 8.4516Z" stroke="#1E1E1E" stroke-width="4" stroke-linecap="round" stroke-linejoin="round"/>
</svg>
