<svg width="44" height="44" viewBox="0 0 44 44" fill="none" xmlns="http://www.w3.org/2000/svg">
<path d="M21.9997 21.9999C19.983 21.9999 18.2566 21.2819 16.8205 19.8458C15.3844 18.4096 14.6663 16.6833 14.6663 14.6666C14.6663 12.6499 15.3844 10.9235 16.8205 9.48742C18.2566 8.05131 19.983 7.33325 21.9997 7.33325C24.0163 7.33325 25.7427 8.05131 27.1788 9.48742C28.615 10.9235 29.333 12.6499 29.333 14.6666C29.333 16.6833 28.615 18.4096 27.1788 19.8458C25.7427 21.2819 24.0163 21.9999 21.9997 21.9999ZM7.33301 36.6666V31.5333C7.33301 30.4944 7.60037 29.5395 8.13509 28.6687C8.66981 27.7978 9.38023 27.1333 10.2663 26.6749C12.1608 25.7277 14.0858 25.0173 16.0413 24.5437C17.9969 24.0701 19.983 23.8333 21.9997 23.8333C24.0163 23.8333 26.0025 24.0701 27.958 24.5437C29.9136 25.0173 31.8386 25.7277 33.733 26.6749C34.6191 27.1333 35.3295 27.7978 35.8643 28.6687C36.399 29.5395 36.6663 30.4944 36.6663 31.5333V36.6666H7.33301ZM10.9997 32.9999H32.9997V31.5333C32.9997 31.1971 32.9156 30.8916 32.7476 30.6166C32.5795 30.3416 32.358 30.1277 32.083 29.9749C30.433 29.1499 28.7677 28.5312 27.0872 28.1187C25.4066 27.7062 23.7108 27.4999 21.9997 27.4999C20.2886 27.4999 18.5927 27.7062 16.9122 28.1187C15.2316 28.5312 13.5663 29.1499 11.9163 29.9749C11.6413 30.1277 11.4198 30.3416 11.2518 30.6166C11.0837 30.8916 10.9997 31.1971 10.9997 31.5333V32.9999ZM21.9997 18.3333C23.008 18.3333 23.8712 17.9742 24.5893 17.2562C25.3073 16.5381 25.6663 15.6749 25.6663 14.6666C25.6663 13.6583 25.3073 12.7951 24.5893 12.077C23.8712 11.3589 23.008 10.9999 21.9997 10.9999C20.9913 10.9999 20.1281 11.3589 19.4101 12.077C18.692 12.7951 18.333 13.6583 18.333 14.6666C18.333 15.6749 18.692 16.5381 19.4101 17.2562C20.1281 17.9742 20.9913 18.3333 21.9997 18.3333Z" fill="#1D1B20"/>
</svg>
