<svg width="16" height="16" viewBox="0 0 16 16" fill="none" xmlns="http://www.w3.org/2000/svg">
<path d="M0 3.63636C0 1.62806 1.62806 0 3.63636 0H12.3636C14.3719 0 16 1.62806 16 3.63636V12.3636C16 14.3719 14.3719 16 12.3636 16H3.63636C1.62806 16 0 14.3719 0 12.3636V3.63636Z" fill="#3E0054"/>
<path d="M11.0756 5.30594C10.8979 5.12248 10.6869 4.97696 10.4546 4.87767C10.2224 4.77838 9.97351 4.72727 9.72214 4.72727C9.47077 4.72727 9.22186 4.77838 8.98963 4.87767C8.75741 4.97696 8.54641 5.12248 8.36871 5.30594L7.99991 5.68649L7.63111 5.30594C7.27215 4.93555 6.78531 4.72746 6.27768 4.72746C5.77004 4.72746 5.2832 4.93555 4.92425 5.30594C4.56529 5.67633 4.36364 6.17869 4.36364 6.7025C4.36364 7.22631 4.56529 7.72867 4.92425 8.09906L7.99991 11.2727L11.0756 8.09906C11.2534 7.91569 11.3944 7.69797 11.4906 7.45835C11.5868 7.21872 11.6364 6.96188 11.6364 6.7025C11.6364 6.44312 11.5868 6.18627 11.4906 5.94665C11.3944 5.70702 11.2534 5.48931 11.0756 5.30594Z" fill="white"/>
</svg>
