<svg width="35" height="35" viewBox="0 0 35 35" fill="none" xmlns="http://www.w3.org/2000/svg">
<path d="M0 7.95455C0 3.56137 3.56137 0 7.95455 0H27.0455C31.4386 0 35 3.56137 35 7.95455V27.0455C35 31.4386 31.4386 35 27.0455 35H7.95455C3.56137 35 0 31.4386 0 27.0455V7.95455Z" fill="#3E0054"/>
<path d="M24.2278 11.6067C23.8391 11.2054 23.3775 10.8871 22.8695 10.6699C22.3615 10.4527 21.8171 10.3409 21.2672 10.3409C20.7173 10.3409 20.1728 10.4527 19.6648 10.6699C19.1568 10.8871 18.6953 11.2054 18.3066 11.6067L17.4998 12.4392L16.693 11.6067C15.9078 10.7965 14.8429 10.3413 13.7324 10.3413C12.622 10.3413 11.557 10.7965 10.7718 11.6067C9.98658 12.417 9.54545 13.5159 9.54545 14.6617C9.54545 15.8076 9.98658 16.9065 10.7718 17.7167L17.4998 24.6591L24.2278 17.7167C24.6167 17.3156 24.9252 16.8393 25.1357 16.3151C25.3462 15.791 25.4545 15.2291 25.4545 14.6617C25.4545 14.0943 25.3462 13.5325 25.1357 13.0083C24.9252 12.4841 24.6167 12.0079 24.2278 11.6067Z" fill="white"/>
</svg>
