<svg width="44" height="44" viewBox="0 0 44 44" fill="none" xmlns="http://www.w3.org/2000/svg">
<path d="M39.3069 20.2583L22.4585 37.1066C20.3945 39.1706 17.595 40.3302 14.676 40.3302C11.757 40.3302 8.95759 39.1706 6.89354 37.1066C4.82949 35.0426 3.66992 32.2431 3.66992 29.3241C3.66992 26.4051 4.82949 23.6056 6.89354 21.5416L23.7419 4.69327C25.1179 3.31724 26.9842 2.54419 28.9302 2.54419C30.8762 2.54419 32.7425 3.31724 34.1185 4.69327C35.4946 6.0693 36.2676 7.9356 36.2676 9.8816C36.2676 11.8276 35.4946 13.6939 34.1185 15.0699L17.2519 31.9183C16.5639 32.6063 15.6307 32.9928 14.6577 32.9928C13.6847 32.9928 12.7516 32.6063 12.0635 31.9183C11.3755 31.2303 10.989 30.2971 10.989 29.3241C10.989 28.3511 11.3755 27.418 12.0635 26.7299L27.6285 11.1833" stroke="#1E1E1E" stroke-width="4" stroke-linecap="round" stroke-linejoin="round"/>
</svg>
