<svg width="51" height="51" viewBox="0 0 51 51" fill="none" xmlns="http://www.w3.org/2000/svg">
<circle cx="25.5" cy="25.5" r="25.5" fill="#4C0067"/>
<path d="M25.6667 23.6667C23.65 23.6667 21.9236 22.9486 20.4875 21.5125C19.0514 20.0764 18.3333 18.35 18.3333 16.3333C18.3333 14.3167 19.0514 12.5903 20.4875 11.1542C21.9236 9.71806 23.65 9 25.6667 9C27.6833 9 29.4097 9.71806 30.8458 11.1542C32.2819 12.5903 33 14.3167 33 16.3333C33 18.35 32.2819 20.0764 30.8458 21.5125C29.4097 22.9486 27.6833 23.6667 25.6667 23.6667ZM11 38.3333V33.2C11 32.1611 11.2674 31.2063 11.8021 30.3354C12.3368 29.4646 13.0472 28.8 13.9333 28.3417C15.8278 27.3944 17.7528 26.684 19.7083 26.2104C21.6639 25.7368 23.65 25.5 25.6667 25.5C27.6833 25.5 29.6694 25.7368 31.625 26.2104C33.5806 26.684 35.5056 27.3944 37.4 28.3417C38.2861 28.8 38.9965 29.4646 39.5313 30.3354C40.066 31.2063 40.3333 32.1611 40.3333 33.2V38.3333H11ZM14.6667 34.6667H36.6667V33.2C36.6667 32.8639 36.5826 32.5583 36.4146 32.2833C36.2465 32.0083 36.025 31.7944 35.75 31.6417C34.1 30.8167 32.4347 30.1979 30.7542 29.7854C29.0736 29.3729 27.3778 29.1667 25.6667 29.1667C23.9556 29.1667 22.2597 29.3729 20.5792 29.7854C18.8986 30.1979 17.2333 30.8167 15.5833 31.6417C15.3083 31.7944 15.0868 32.0083 14.9188 32.2833C14.7507 32.5583 14.6667 32.8639 14.6667 33.2V34.6667ZM25.6667 20C26.675 20 27.5382 19.641 28.2563 18.9229C28.9743 18.2049 29.3333 17.3417 29.3333 16.3333C29.3333 15.325 28.9743 14.4618 28.2563 13.7438C27.5382 13.0257 26.675 12.6667 25.6667 12.6667C24.6583 12.6667 23.7951 13.0257 23.0771 13.7438C22.359 14.4618 22 15.325 22 16.3333C22 17.3417 22.359 18.2049 23.0771 18.9229C23.7951 19.641 24.6583 20 25.6667 20Z" fill="white"/>
</svg>
