<svg width="51" height="51" viewBox="0 0 51 51" fill="none" xmlns="http://www.w3.org/2000/svg">
<circle cx="25.5" cy="25.5" r="25.5" fill="#4C0067"/>
<path d="M37.1141 18.0148C36.4757 17.376 35.7176 16.8693 34.8833 16.5236C34.049 16.1779 33.1547 16 32.2516 16C31.3485 16 30.4542 16.1779 29.6199 16.5236C28.7856 16.8693 28.0276 17.376 27.3891 18.0148L26.0641 19.3398L24.7391 18.0148C23.4495 16.7252 21.7004 16.0007 19.8766 16.0007C18.0528 16.0007 16.3037 16.7252 15.0141 18.0148C13.7245 19.3044 13 21.0535 13 22.8773C13 24.7011 13.7245 26.4502 15.0141 27.7398L26.0641 38.7898L37.1141 27.7398C37.7529 27.1013 38.2596 26.3433 38.6053 25.509C38.951 24.6747 39.1289 23.7804 39.1289 22.8773C39.1289 21.9742 38.951 21.0799 38.6053 20.2456C38.2596 19.4113 37.7529 18.6532 37.1141 18.0148Z" stroke="white" stroke-width="4" stroke-linecap="round" stroke-linejoin="round"/>
</svg>
